/* XPM */
static char *_1c1a8e965ee4735944bb3f69075a35d[] = {
/* columns rows colors chars-per-pixel */
"64 64 17 1 ",
"  c #15B7E8",
". c #34BCEA",
"X c #4CC2EB",
"o c #60C7ED",
"O c #72CCEE",
"+ c #82D1F0",
"@ c #91D6F1",
"# c #A0DAF3",
"$ c #ADDFF4",
"% c #BAE4F6",
"& c #C7E9F7",
"* c #D3EDF9",
"= c #DEF2FB",
"- c #EAF6FC",
"; c #F4FBFE",
": c gray100",
"> c None",
/* pixels */
">>>>>>>>>>>>>>>>>>>>>>>>>>>          >>>>>>>>>>>>>>>>>>>>>>>>>>>",
">>>>>>>>>>>>>>>>>>>>>>                    >>>>>>>>>>>>>>>>>>>>>>",
">>>>>>>>>>>>>>>>>>>>                        >>>>>>>>>>>>>>>>>>>>",
">>>>>>>>>>>>>>>>>>                            >>>>>>>>>>>>>>>>>>",
">>>>>>>>>>>>>>>>                                >>>>>>>>>>>>>>>>",
">>>>>>>>>>>>>>                                    >>>>>>>>>>>>>>",
">>>>>>>>>>>>>                                      >>>>>>>>>>>>>",
">>>>>>>>>>>                                          >>>>>>>>>>>",
">>>>>>>>>>                   @#####o                  >>>>>>>>>>",
">>>>>>>>>                 #-:::::::::*@                >>>>>>>>>",
">>>>>>>>                @::::::::::::::=o               >>>>>>>>",
">>>>>>>                %::::::::::::::::;O               >>>>>>>",
">>>>>>>               %::::::::::::::::::;X              >>>>>>>",
">>>>>>               @::::::::::::::::::::&               >>>>>>",
">>>>>               .;:::::::::::::::::::::O               >>>>>",
">>>>>               #::::::::::::::::::::::$               >>>>>",
">>>>                =:::::::%.    O=:::::::;                >>>>",
">>>>               .:::::::$        =:::::::X               >>>>",
">>>                +:::::::.        O:::::::+                >>>",
">>>                #::::::=          ;::::::@                >>>",
">>                 #::::::*          -::::::#                 >>",
">>                 #::::::-                                   >>",
">                  #:::::::o                                   >",
">                  #:::::::&                                   >",
">                  +::::::::&                                  >",
">                  o:::::::::-O                                >",
"                    -::::::::::&o                               ",
"                    #::::::::::::*+                             ",
"                    .;:::::::::::::=+                           ",
"                     +:::::::::::::::=o                         ",
"              ::::::::::::::::::::::::::::::::::::              ",
"              ::::::::::::::::::::::::::::::::::::              ",
"              ::::::::::::::::::::::::::::::::::::              ",
"              ::::::::::::::::::::::::::::::::::::              ",
"              ::::::::::::::::::::::::::::::::::::              ",
"                             #::::::::::::::X                   ",
"                              .$::::::::::::#                   ",
"                                .$::::::::::=                   ",
">                                 o=:::::::::.                 >",
">                                   =::::::::o                 >",
">                                   X::::::::O                 >",
">                                    &:::::::O                 >",
">>                                   #:::::::O                >>",
">>                 #######+          @:::::::O                >>",
">>>                *::::::=          #:::::::X               >>>",
">>>                $:::::::O         =::::::;                >>>",
">>>>               @:::::::=        @:::::::&                >>>",
">>>>               .::::::::=O     #::::::::@               >>>>",
">>>>>               *::::::::::::::::::::::;.              >>>>>",
">>>>>               @::::::::::::::::::::::#               >>>>>",
">>>>>>               *::::::::::::::::::::-.              >>>>>>",
">>>>>>>              X;:::::::::::::::::::o              >>>>>>>",
">>>>>>>               o;::::::::::::::::;O               >>>>>>>",
">>>>>>>>               X*::::::::::::::*X               >>>>>>>>",
">>>>>>>>>                O%::::::::::&+                >>>>>>>>>",
">>>>>>>>>>                   ######o                  >>>>>>>>>>",
">>>>>>>>>>>                                          >>>>>>>>>>>",
">>>>>>>>>>>>>                                      >>>>>>>>>>>>>",
">>>>>>>>>>>>>>                                    >>>>>>>>>>>>>>",
">>>>>>>>>>>>>>>>                                >>>>>>>>>>>>>>>>",
">>>>>>>>>>>>>>>>>                              >>>>>>>>>>>>>>>>>",
">>>>>>>>>>>>>>>>>>>>                        >>>>>>>>>>>>>>>>>>>>",
">>>>>>>>>>>>>>>>>>>>>>                    >>>>>>>>>>>>>>>>>>>>>>",
">>>>>>>>>>>>>>>>>>>>>>>>>>>          >>>>>>>>>>>>>>>>>>>>>>>>>>>"
};
