/* XPM */
static char *_9a52a5a6689492d91b933435a71e5d6[] = {
/* columns rows colors chars-per-pixel */
"16 16 15 1 ",
"  c #15B7E8",
". c #34BCEA",
"X c #4CC2EB",
"o c #60C7ED",
"O c #72CCEE",
"+ c #82D1F0",
"@ c #91D6F1",
"# c #A0DAF3",
"$ c #C7E9F7",
"% c #D3EDF9",
"& c #DEF2FB",
"* c #EAF6FC",
"= c #F4FBFE",
"- c gray100",
"; c None",
/* pixels */
";;;;;      ;;;;;",
";;;          ;;;",
";;            ;;",
";    X%--&+    ;",
";    &----=    ;",
"    X-*  &-O    ",
"    X-*.        ",
"   ---------    ",
"     .%---@     ",
"       o%--O    ",
"    X    $-#    ",
";   X-*. %-#   ;",
";    &----=.   ;",
";;   X%--&+   ;;",
";;;          ;;;",
";;;;;      ;;;;;"
};
