/* XPM */
static char *_cd3f2318e3a45b7eddfbaead8e5fbf5[] = {
/* columns rows colors chars-per-pixel */
"32 32 17 1 ",
"  c #15B7E8",
". c #34BCEA",
"X c #4CC2EB",
"o c #60C7ED",
"O c #72CCEE",
"+ c #82D1F0",
"@ c #91D6F1",
"# c #A0DAF3",
"$ c #ADDFF4",
"% c #BAE4F6",
"& c #C7E9F7",
"* c #D3EDF9",
"= c #DEF2FB",
"- c #EAF6FC",
"; c #F4FBFE",
": c gray100",
"> c None",
/* pixels */
">>>>>>>>>>>>        >>>>>>>>>>>>",
">>>>>>>>>              >>>>>>>>>",
">>>>>>>                  >>>>>>>",
">>>>>>                    >>>>>>",
">>>>>       o$::::$O       >>>>>",
">>>>       @::::::::@       >>>>",
">>>       O::::::::::X       >>>",
">>        =:::-#$::::$        >>",
">>       .:::&   X;::=        >>",
">        O:::+    %:::         >",
">        O:::@                 >",
">        O:::=.                >",
"         .::::-+                ",
"          %:::::=@              ",
"          X-::::::-O            ",
"       ::::::::::::::::::       ",
"       ::::::::::::::::::       ",
"       ::::::::::::::::::       ",
"                X*::::O         ",
"                  =:::@         ",
">                 #:::@        >",
">        #:::+    #:::+        >",
">        o:::=    =:::o        >",
">>        ;::::##;:::=        >>",
">>        #::::::::::+        >>",
">>>        %::::::::#        >>>",
">>>>        +%::::$o        >>>>",
">>>>>                      >>>>>",
">>>>>>                    >>>>>>",
">>>>>>>                  >>>>>>>",
">>>>>>>>>              >>>>>>>>>",
">>>>>>>>>>>>        >>>>>>>>>>>>"
};
